<?xml version="1.0" standalone="no"?>
<!DOCTYPE svg PUBLIC "-//W3C//DTD SVG 20010904//EN"
 "http://www.w3.org/TR/2001/REC-SVG-20010904/DTD/svg10.dtd">
<svg version="1.0" xmlns="http://www.w3.org/2000/svg"
 width="512.000000pt" height="512.000000pt" viewBox="0 0 512.000000 512.000000"
 preserveAspectRatio="xMidYMid meet">
<metadata>
Created by potrace 1.11, written by Peter Selinger 2001-2013
</metadata>
<g transform="translate(0.000000,512.000000) scale(0.100000,-0.100000)"
fill="#000000" stroke="none">
<path d="M1603 4323 l-943 -546 0 -1217 0 -1218 942 -543 c519 -299 950 -544
958 -544 8 0 439 245 958 544 l942 543 0 1218 0 1217 -942 544 c-518 299 -949
545 -958 546 -8 1 -439 -244 -957 -544z m1212 -455 c129 -25 278 -84 396 -156
130 -79 312 -261 391 -391 197 -322 236 -728 103 -1073 -197 -509 -700 -823
-1244 -777 -456 39 -858 343 -1026 777 -133 345 -94 752 103 1073 76 124 243
295 367 375 272 177 586 236 910 172z"/>
<path d="M2481 3700 c-81 -17 -151 -62 -178 -113 -13 -25 -13 -31 2 -53 38
-58 147 -61 258 -8 73 34 77 35 133 25 89 -17 183 -14 191 5 15 40 -45 93
-147 129 -54 20 -198 28 -259 15z"/>
<path d="M2225 3423 c-11 -2 -30 -6 -43 -9 -13 -2 -57 -36 -98 -74 -41 -39
-79 -70 -84 -70 -4 0 -17 12 -28 27 l-20 27 -53 -35 c-67 -45 -239 -197 -272
-241 -34 -45 -57 -119 -57 -183 0 -72 13 -105 42 -105 31 0 41 -8 70 -55 35
-54 67 -87 81 -82 23 7 18 38 -12 73 -17 19 -31 37 -31 40 0 3 17 28 38 55 29
39 54 57 122 90 134 64 160 98 135 170 -8 23 -15 44 -15 46 0 3 16 20 35 38
33 29 35 34 25 61 -15 37 -6 67 24 83 47 26 59 -8 27 -73 -21 -41 -19 -61 10
-77 27 -14 60 7 145 89 118 113 121 186 9 204 -16 3 -39 3 -50 1z"/>
<path d="M2656 3307 c-23 -24 -26 -34 -26 -104 0 -109 -11 -126 -84 -134 -85
-9 -91 -22 -33 -74 26 -24 47 -48 47 -54 0 -6 -16 -11 -36 -11 -19 0 -44 -5
-55 -10 -28 -15 -24 -48 6 -56 14 -3 25 -9 25 -13 0 -4 -20 -26 -44 -50 -76
-75 -107 -240 -61 -321 25 -42 94 -80 148 -80 55 0 84 -32 91 -101 3 -30 5
-112 3 -184 -2 -118 0 -134 20 -171 23 -44 39 -54 79 -54 54 0 82 35 119 150
10 30 21 59 26 65 6 5 24 -6 48 -29 25 -24 45 -36 55 -33 18 7 29 57 24 112
-3 34 -7 40 -35 47 -49 13 -45 53 11 116 35 41 44 59 50 103 19 148 65 232
126 232 41 0 52 -14 85 -114 40 -118 65 -128 86 -33 16 71 32 93 56 78 30 -18
73 -108 97 -206 l24 -93 17 40 c42 100 58 187 58 325 1 159 -15 235 -73 357
-50 102 -106 154 -250 227 -140 72 -157 75 -252 37 -42 -17 -87 -31 -101 -31
-13 0 -51 18 -85 41 -79 53 -131 61 -166 26z m64 -412 c0 -50 24 -56 62 -16
33 35 32 35 59 21 47 -26 66 -120 28 -141 -35 -18 -108 -5 -133 23 -11 14 -33
32 -48 41 -38 24 -45 54 -17 83 32 35 49 31 49 -11z"/>
<path d="M1578 2663 c-34 -9 -21 -55 31 -117 36 -42 53 -73 60 -108 15 -68 33
-98 101 -174 62 -68 64 -72 115 -257 28 -103 140 -190 160 -126 4 12 4 50 0
84 -6 55 -2 74 24 151 17 49 31 108 31 132 0 41 -4 48 -61 101 -34 31 -88 83
-120 116 l-59 59 -87 6 -88 5 -13 42 c-13 41 -53 94 -69 92 -4 -1 -16 -3 -25
-6z"/>
<path d="M2508 1846 c-24 -21 -34 -24 -86 -19 -76 7 -130 -10 -138 -43 -21
-83 174 -137 406 -114 58 6 109 15 113 19 14 14 -14 59 -57 89 -59 42 -161 92
-188 92 -13 0 -35 -11 -50 -24z"/>
</g>
</svg>
